<svg xmlns="http://www.w3.org/2000/svg" viewBox="0 0 512 512">
  <defs>
    <linearGradient id="grad1" x1="0%" y1="0%" x2="100%" y2="100%">
      <stop offset="0%" style="stop-color:#3b82f6;stop-opacity:1" />
      <stop offset="100%" style="stop-color:#8b5cf6;stop-opacity:1" />
    </linearGradient>
  </defs>
  <rect width="512" height="512" rx="100" fill="#0f172a" />
  <path d="M256 120C160 120 76 180 40 256c36 76 120 136 216 136s180-60 216-136c-36-76-120-136-216-136zm0 232c-53 0-96-43-96-96s43-96 96-96 96 43 96 96-43 96-96 96zm0-160c-35.3 0-64 28.7-64 64s28.7 64 64 64 64-28.7 64-64-28.7-64-64-64z" fill="url(#grad1)" />
</svg>
